<svg xmlns="http://www.w3.org/2000/svg" width="1024" height="1024" viewBox="0 0 1024 1024">
  <rect width="1024" height="1024" fill="#0A0A0A"/>
  <rect x="51.2" y="51.2" width="921.6" height="921.6" rx="122.88" fill="#0A0A0A" stroke="#00FF9D" stroke-width="20.48"/>
  <rect x="102.4" y="102.4" width="819.2" height="819.2" rx="81.92" fill="#0D1117"/>
  <!-- Grid pattern -->
  <g opacity="0.08">
    <line x1="102.4" y1="102.4" x2="102.4" y2="921.6" stroke="#00FF9D" stroke-width="1"/>
<line x1="143.36" y1="102.4" x2="143.36" y2="921.6" stroke="#00FF9D" stroke-width="1"/>
<line x1="184.32" y1="102.4" x2="184.32" y2="921.6" stroke="#00FF9D" stroke-width="1"/>
<line x1="225.28000000000003" y1="102.4" x2="225.28000000000003" y2="921.6" stroke="#00FF9D" stroke-width="1"/>
<line x1="266.24" y1="102.4" x2="266.24" y2="921.6" stroke="#00FF9D" stroke-width="1"/>
<line x1="307.20000000000005" y1="102.4" x2="307.20000000000005" y2="921.6" stroke="#00FF9D" stroke-width="1"/>
<line x1="348.1600000000001" y1="102.4" x2="348.1600000000001" y2="921.6" stroke="#00FF9D" stroke-width="1"/>
<line x1="389.12" y1="102.4" x2="389.12" y2="921.6" stroke="#00FF9D" stroke-width="1"/>
<line x1="430.08000000000004" y1="102.4" x2="430.08000000000004" y2="921.6" stroke="#00FF9D" stroke-width="1"/>
<line x1="471.03999999999996" y1="102.4" x2="471.03999999999996" y2="921.6" stroke="#00FF9D" stroke-width="1"/>
<line x1="512" y1="102.4" x2="512" y2="921.6" stroke="#00FF9D" stroke-width="1"/>
<line x1="552.96" y1="102.4" x2="552.96" y2="921.6" stroke="#00FF9D" stroke-width="1"/>
<line x1="593.9200000000001" y1="102.4" x2="593.9200000000001" y2="921.6" stroke="#00FF9D" stroke-width="1"/>
<line x1="634.88" y1="102.4" x2="634.88" y2="921.6" stroke="#00FF9D" stroke-width="1"/>
<line x1="675.84" y1="102.4" x2="675.84" y2="921.6" stroke="#00FF9D" stroke-width="1"/>
<line x1="716.8" y1="102.4" x2="716.8" y2="921.6" stroke="#00FF9D" stroke-width="1"/>
<line x1="757.76" y1="102.4" x2="757.76" y2="921.6" stroke="#00FF9D" stroke-width="1"/>
<line x1="798.72" y1="102.4" x2="798.72" y2="921.6" stroke="#00FF9D" stroke-width="1"/>
<line x1="839.68" y1="102.4" x2="839.68" y2="921.6" stroke="#00FF9D" stroke-width="1"/>
<line x1="880.64" y1="102.4" x2="880.64" y2="921.6" stroke="#00FF9D" stroke-width="1"/>
    <line x1="102.4" y1="102.4" x2="921.6" y2="102.4" stroke="#00FF9D" stroke-width="1"/>
<line x1="102.4" y1="143.36" x2="921.6" y2="143.36" stroke="#00FF9D" stroke-width="1"/>
<line x1="102.4" y1="184.32" x2="921.6" y2="184.32" stroke="#00FF9D" stroke-width="1"/>
<line x1="102.4" y1="225.28000000000003" x2="921.6" y2="225.28000000000003" stroke="#00FF9D" stroke-width="1"/>
<line x1="102.4" y1="266.24" x2="921.6" y2="266.24" stroke="#00FF9D" stroke-width="1"/>
<line x1="102.4" y1="307.20000000000005" x2="921.6" y2="307.20000000000005" stroke="#00FF9D" stroke-width="1"/>
<line x1="102.4" y1="348.1600000000001" x2="921.6" y2="348.1600000000001" stroke="#00FF9D" stroke-width="1"/>
<line x1="102.4" y1="389.12" x2="921.6" y2="389.12" stroke="#00FF9D" stroke-width="1"/>
<line x1="102.4" y1="430.08000000000004" x2="921.6" y2="430.08000000000004" stroke="#00FF9D" stroke-width="1"/>
<line x1="102.4" y1="471.03999999999996" x2="921.6" y2="471.03999999999996" stroke="#00FF9D" stroke-width="1"/>
<line x1="102.4" y1="512" x2="921.6" y2="512" stroke="#00FF9D" stroke-width="1"/>
<line x1="102.4" y1="552.96" x2="921.6" y2="552.96" stroke="#00FF9D" stroke-width="1"/>
<line x1="102.4" y1="593.9200000000001" x2="921.6" y2="593.9200000000001" stroke="#00FF9D" stroke-width="1"/>
<line x1="102.4" y1="634.88" x2="921.6" y2="634.88" stroke="#00FF9D" stroke-width="1"/>
<line x1="102.4" y1="675.84" x2="921.6" y2="675.84" stroke="#00FF9D" stroke-width="1"/>
<line x1="102.4" y1="716.8" x2="921.6" y2="716.8" stroke="#00FF9D" stroke-width="1"/>
<line x1="102.4" y1="757.76" x2="921.6" y2="757.76" stroke="#00FF9D" stroke-width="1"/>
<line x1="102.4" y1="798.72" x2="921.6" y2="798.72" stroke="#00FF9D" stroke-width="1"/>
<line x1="102.4" y1="839.68" x2="921.6" y2="839.68" stroke="#00FF9D" stroke-width="1"/>
<line x1="102.4" y1="880.64" x2="921.6" y2="880.64" stroke="#00FF9D" stroke-width="1"/>
  </g>
  <!-- CEOS text -->
  <text x="512" y="430.08" font-family="monospace, Courier" font-size="184.32" font-weight="bold" fill="#00FF9D" text-anchor="middle" dominant-baseline="middle">CEOS</text>
  <!-- Score subtitle -->
  <text x="512" y="573.44" font-family="monospace, Courier" font-size="71.68" fill="#00FF9D" opacity="0.6" text-anchor="middle" dominant-baseline="middle">SCORE</text>
  <!-- Decorative line -->
  <line x1="256" y1="665.6" x2="768" y2="665.6" stroke="#00FF9D" stroke-width="3.072" opacity="0.3"/>
  <!-- Agent Performance text -->
  <text x="512" y="757.76" font-family="monospace, Courier" font-size="40.96" fill="#00FF9D" opacity="0.4" text-anchor="middle" dominant-baseline="middle">AGENT PERFORMANCE</text>
  <!-- Corner decorations -->
  <path d="M122.88 184.32 L122.88 122.88 L184.32 122.88" fill="none" stroke="#00FF9D" stroke-width="5.12" opacity="0.5"/>
  <path d="M839.68 122.88 L901.12 122.88 L901.12 184.32" fill="none" stroke="#00FF9D" stroke-width="5.12" opacity="0.5"/>
  <path d="M122.88 839.68 L122.88 901.12 L184.32 901.12" fill="none" stroke="#00FF9D" stroke-width="5.12" opacity="0.5"/>
  <path d="M839.68 901.12 L901.12 901.12 L901.12 839.68" fill="none" stroke="#00FF9D" stroke-width="5.12" opacity="0.5"/>
  <!-- Pulse dot -->
  <circle cx="512" cy="860.16" r="15.36" fill="#00FF9D" opacity="0.6"/>
</svg>